<?xml version="1.0" encoding="utf-8"?>
<!-- Generator: Adobe Illustrator 22.1.0, SVG Export Plug-In . SVG Version: 6.00 Build 0)  -->
<svg version="1.1" id="Calque_1" xmlns="http://www.w3.org/2000/svg" xmlns:xlink="http://www.w3.org/1999/xlink" x="0px" y="0px"
	 viewBox="0 0 1000 1000" style="enable-background:new 0 0 1000 1000;" xml:space="preserve">
<style type="text/css">
	.st0{fill:none;stroke:#76BDB9;stroke-width:5;stroke-miterlimit:10;}
</style>
<g>
	<polyline class="st0" points="979.5,1000.5 979.5,738 830.4,738 830.4,677.2 717,677.2 717,776.9 581.6,776.9 581.6,713.9 
		473.5,713.9 473.5,734.9 	"/>
	<polyline class="st0" points="979.5,738 979.5,641.5 853.3,641.5 764.3,641.5 764.3,584.8 	"/>
	<polyline class="st0" points="853.5,641.5 853.5,482.9 686.6,482.9 686.6,625.7 519.7,625.7 519.7,532.3 454.6,532.3 	"/>
	<polyline class="st0" points="686.6,482.9 572.2,482.9 572.2,339.6 572.2,296.1 482.9,296.1 482.9,224.7 400,224.7 	"/>
	<line class="st0" x1="572.2" y1="340.2" x2="428.3" y2="340.2"/>
	<line class="st0" x1="572.2" y1="435.5" x2="490.3" y2="435.5"/>
	<line class="st0" x1="654.1" y1="482.9" x2="654.1" y2="405.3"/>
	<polyline class="st0" points="735.8,482.9 735.8,320.2 654.1,320.2 654.1,269.8 752.7,269.8 752.7,224.7 	"/>
	<polyline class="st0" points="654.1,269.8 654.1,183.7 499.7,183.7 499.7,47.3 454.6,47.3 	"/>
	<polyline class="st0" points="654.1,250.9 543.8,250.9 543.8,219.4 	"/>
	<line class="st0" x1="499.7" y1="104.5" x2="424.1" y2="104.5"/>
	<polyline class="st0" points="499.7,131.8 605.8,131.8 605.8,77.7 	"/>
	<polyline class="st0" points="979.5,641.5 979.5,565.9 917.6,565.9 917.6,312.9 	"/>
	<polyline class="st0" points="917.6,405.3 824.1,405.3 824.1,162.7 667.7,162.7 667.7,28.4 	"/>
	<polyline class="st0" points="745.4,162.7 745.4,92.4 712.8,92.4 	"/>
	<polyline class="st0" points="824.1,254.3 910.2,254.3 910.2,105 821,105 821,42 	"/>
</g>
</svg>
